<svg width="200" height="42" viewBox="0 0 200 42" fill="none" xmlns="http://www.w3.org/2000/svg">
<path fill-rule="evenodd" clip-rule="evenodd" d="M45.2388 7.54768C42.9596 7.5382 40.7798 8.47592 39.2245 10.135V8.05412H34.4263V34.059H39.2245V25.0861C40.7537 26.7076 42.8945 27.6178 45.1282 27.5963C49.9927 27.5963 54.2713 23.5337 54.2713 17.5885C54.2713 11.6433 50.1696 7.54768 45.2388 7.54768ZM44.2659 23.2254C41.3141 23.2254 39.0034 20.9684 39.0034 17.5224C39.0034 14.1865 41.104 11.9295 44.2659 11.9295C47.4279 11.9295 49.4511 14.2856 49.4511 17.5554C49.4511 20.8253 47.2178 23.2254 44.2659 23.2254Z" fill="#1E28DC"/>
<path fill-rule="evenodd" clip-rule="evenodd" d="M66.4551 27.5963C68.6902 27.6246 70.8336 26.7133 72.3589 25.0861V27.1229H77.146V8.05412H72.3589V10.135C70.8035 8.47592 68.6237 7.5382 66.3446 7.54768C61.3806 7.54768 57.3452 11.7424 57.3452 17.5885C57.3452 23.4346 61.5906 27.5963 66.4551 27.5963ZM67.3175 23.2254C64.3767 23.2254 62.1655 20.8583 62.1655 17.5554C62.1655 14.4397 64.1445 11.9295 67.3175 11.9295C68.7799 11.9163 70.181 12.5134 71.181 13.5762C72.1809 14.6389 72.6883 16.07 72.58 17.5224C72.58 21.0235 70.2583 23.2254 67.3175 23.2254Z" fill="#1E28DC"/>
<path fill-rule="evenodd" clip-rule="evenodd" d="M79.8877 8.0542H84.7854L89.7605 19.9997L95.2883 8.0542H100.23L86.9634 36.5583H82.0215L87.1624 25.6587L79.8877 8.0542Z" fill="#1E28DC"/>
<path fill-rule="evenodd" clip-rule="evenodd" d="M102.873 27.1229H107.66V25.0861C109.193 26.7082 111.338 27.6182 113.575 27.5963C118.428 27.5963 122.718 23.5338 122.718 17.5886C122.718 11.6433 118.616 7.54773 113.674 7.54773C111.396 7.54225 109.217 8.47931 107.66 10.135V0.699707H102.873V27.1229ZM112.712 23.2475C109.749 23.2475 107.45 20.9905 107.45 17.5445V17.5225C107.45 14.1865 109.55 11.9516 112.712 11.9516C115.874 11.9516 117.897 14.3076 117.897 17.5775C117.897 20.8474 115.675 23.2475 112.712 23.2475Z" fill="#6496FF"/>
<path fill-rule="evenodd" clip-rule="evenodd" d="M126.178 0.699707H130.965V27.1229H126.178V0.699707Z" fill="#6496FF"/>
<path fill-rule="evenodd" clip-rule="evenodd" d="M144.453 27.5407C149.979 27.5227 154.452 23.0595 154.459 17.5557C154.486 14.8739 153.421 12.2956 151.506 10.4096C149.591 8.52365 146.991 7.49112 144.298 7.54788C138.772 7.61456 134.339 12.1171 134.382 17.6208C134.424 23.1244 138.926 27.5586 144.453 27.5407ZM144.365 23.0605C141.269 23.0605 139.224 20.7815 139.224 17.5557C139.135 15.6481 140.107 13.8465 141.753 12.8664C143.399 11.8862 145.452 11.8862 147.098 12.8664C148.744 13.8465 149.716 15.6481 149.627 17.5557C149.723 18.9968 149.209 20.412 148.209 21.4581C147.209 22.5041 145.815 23.0853 144.365 23.0605Z" fill="#6496FF"/>
<path fill-rule="evenodd" clip-rule="evenodd" d="M176.548 23.6218C174.483 26.2827 171.241 27.7676 167.869 27.5963C161.346 27.5963 157.134 23.1925 157.134 17.6876C157.134 12.1828 161.556 7.60275 167.935 7.60275C171.431 7.46326 174.76 9.09592 176.78 11.9406L172.778 14.1425C171.606 12.7152 169.841 11.9033 167.991 11.9406C166.403 11.8308 164.843 12.3955 163.697 13.495C162.551 14.5944 161.925 16.1257 161.976 17.7096C161.931 19.2298 162.536 20.6976 163.641 21.7475C164.746 22.7975 166.247 23.3307 167.769 23.2145C169.695 23.3127 171.553 22.4957 172.778 21.0125L176.548 23.6218Z" fill="#6496FF"/>
<path fill-rule="evenodd" clip-rule="evenodd" d="M180.495 0.699707H185.271V15.9041L192.358 8.05417H198.339L190.146 17.2142L199.367 27.1229H193.43L185.271 18.3152V27.1229H180.473L180.495 0.699707Z" fill="#6496FF"/>
<path fill-rule="evenodd" clip-rule="evenodd" d="M20.4521 7.5478C26.4996 7.5478 30.6123 11.8526 30.6123 17.8749C30.6123 18.0951 30.6012 18.2575 30.5902 18.4199C30.5791 18.5823 30.5681 18.7446 30.5681 18.9648H15.1674C15.527 21.6059 17.8688 23.5253 20.5405 23.3687C22.316 23.4526 24.0425 22.7753 25.2834 21.5081L29.3851 23.4017C27.2735 26.3083 24.5648 27.5964 20.5405 27.5964C15.4445 27.8065 11.0737 24.0101 10.5904 18.9538H5.95801V15.1885H10.7894C11.7376 10.6538 15.802 7.43991 20.4521 7.5478ZM15.3774 15.1885H22.6079H25.7919C25.0793 12.9313 22.9117 11.4499 20.5405 11.5994C18.208 11.5143 16.1013 12.9788 15.3774 15.1885Z" fill="#1E28DC"/>
<rect x="0.640137" y="15.1885" width="3.78106" height="3.76531" fill="#1E28DC"/>
<path fill-rule="evenodd" clip-rule="evenodd" d="M79.5894 41.6998H84.5313L86.267 37.9565H81.3472L79.5894 41.6998Z" fill="#1E28DC"/>
</svg>
