<svg width="16" height="16" viewBox="0 0 16 16" fill="none" xmlns="http://www.w3.org/2000/svg">
<path fill-rule="evenodd" clip-rule="evenodd" d="M5.07021 5.86002C4.99536 5.78582 4.90662 5.72709 4.80907 5.68719C4.71152 5.64728 4.60707 5.62698 4.50168 5.62745C4.39628 5.62791 4.29201 5.64913 4.19482 5.68989C4.09762 5.73066 4.00941 5.79016 3.93521 5.86502C3.86101 5.93987 3.80229 6.0286 3.76238 6.12615C3.72248 6.2237 3.70218 6.32816 3.70264 6.43355C3.70311 6.53895 3.72433 6.64322 3.76509 6.74041C3.80585 6.8376 3.86536 6.92582 3.94021 7.00002L7.44021 10.5C7.59018 10.6496 7.79337 10.7336 8.00521 10.7336C8.21705 10.7336 8.42024 10.6496 8.57021 10.5L12.0702 7.00002C12.2081 6.84784 12.2822 6.64846 12.2771 6.44316C12.2721 6.23787 12.1883 6.04238 12.0431 5.89717C11.8978 5.75196 11.7024 5.66815 11.4971 5.6631C11.2918 5.65804 11.0924 5.73213 10.9402 5.87002L8.01021 8.80002L5.07021 5.86002Z" fill="#D0DEFA"/>
</svg>
